<svg width="145" height="48" viewBox="0 0 145 48" fill="none" xmlns="http://www.w3.org/2000/svg">
<path d="M34.24 48H0.640015V14.4L7.36002 7.67999H0.640015V0.959991H34.24V7.67999H8.32001V26.88L14.08 21.12H34.24V27.84H8.32001V41.28H34.24V48Z" fill="#536DFE"/>
<path d="M95.68 47.904H88V12.576L90.88 7.77599H86.56L74.752 34.56H69.184L57.76 7.77599H53.44L56.32 12.576V47.904H48.64V0.959991H62.368L71.872 23.424H72.832L82.336 0.959991H95.68V47.904Z" fill="#536DFE"/>
<path d="M144.633 41.28C144.633 43.136 143.961 44.736 142.617 46.08C141.337 47.36 139.769 48 137.913 48H111.033V41.28H136.953V27.84H117.753C115.897 27.84 114.297 27.2 112.953 25.92C111.673 24.576 111.033 22.976 111.033 21.12V7.67999C111.033 5.82399 111.673 4.25599 112.953 2.97599C114.297 1.63199 115.897 0.959991 117.753 0.959991H144.633V7.67999H118.713V21.12H137.913C139.769 21.12 141.337 21.792 142.617 23.136C143.961 24.416 144.633 25.984 144.633 27.84V41.28Z" fill="#536DFE"/>
</svg>
